<?xml version="1.0" encoding="utf-8"?>
<!-- Generator: Adobe Illustrator 16.0.0, SVG Export Plug-In . SVG Version: 6.00 Build 0)  -->
<!DOCTYPE svg PUBLIC "-//W3C//DTD SVG 1.1//EN" "http://www.w3.org/Graphics/SVG/1.1/DTD/svg11.dtd">
<svg version="1.1"
	 id="Layer_1" xmlns:dc="http://purl.org/dc/elements/1.1/" xmlns:cc="http://creativecommons.org/ns#" xmlns:rdf="http://www.w3.org/1999/02/22-rdf-syntax-ns#" xmlns:svg="http://www.w3.org/2000/svg" xmlns:sodipodi="http://sodipodi.sourceforge.net/DTD/sodipodi-0.dtd" xmlns:inkscape="http://www.inkscape.org/namespaces/inkscape"
	 xmlns="http://www.w3.org/2000/svg" xmlns:xlink="http://www.w3.org/1999/xlink" x="0px" y="0px" width="8.454px" height="8.452px"
	 viewBox="3.772 2.171 8.454 8.452" enable-background="new 3.772 2.171 8.454 8.452" xml:space="preserve">
<g transform="translate(0,-952.36218)">
	<path fill="#FFFFFF" d="M3.888,954.534c-0.071,0.007-0.122,0.07-0.115,0.14c0.003,0.03,0.017,0.059,0.039,0.08l4.004,4.008
		l-4.004,4.004c-0.05,0.051-0.05,0.132,0.001,0.182c0.05,0.051,0.132,0.05,0.182-0.001c0,0,0-0.001,0.001-0.001L8,958.942
		l4.004,4.004c0.051,0.051,0.132,0.051,0.182,0.001c0.051-0.05,0.051-0.13,0.002-0.181l-4.003-4.004l4.003-4.008
		c0.051-0.049,0.053-0.13,0.004-0.181c-0.025-0.027-0.062-0.041-0.1-0.039c-0.033,0.001-0.064,0.016-0.088,0.04L8,958.578
		l-4.004-4.004C3.968,954.544,3.928,954.53,3.888,954.534z"/>
</g>
</svg>
