<?xml version="1.0" encoding="utf-8"?>
<!-- Generator: Adobe Illustrator 16.0.0, SVG Export Plug-In . SVG Version: 6.00 Build 0)  -->
<!DOCTYPE svg PUBLIC "-//W3C//DTD SVG 1.1//EN" "http://www.w3.org/Graphics/SVG/1.1/DTD/svg11.dtd">
<svg version="1.1" id="Layer_1" xmlns="http://www.w3.org/2000/svg" xmlns:xlink="http://www.w3.org/1999/xlink" x="0px" y="0px"
	 width="465px" height="112px" viewBox="0 0 465 112" enable-background="new 0 0 465 112" xml:space="preserve">
<path d="M103.107,42.588l46.33,4.35l11.278-30.575l0.21,0.038V8.351l-57.819-0.002V42.588z M103.107,44.727v60.888h54.51
	l-8.62-56.58L103.107,44.727z M26.21,35.371l56.038,5.261v-10.83h12.105V8.265H62.677L26.21,35.371z M159.776,105.615h1.149V22
	l-9.884,26.354L159.776,105.615z M184.34,8.351h-13.435v97.264h31.782l9.307-57.843L184.34,8.351z M236.82,8.351h-49.701
	l26.777,37.994l38.679,4.834c5.236-4.46,8.561-11.096,8.561-18.514C261.135,19.237,250.248,8.351,236.82,8.351z M322.408,59.664
	l34.223,3.896V44.962h-11.988V27.201h11.988V8.351h-69.869L322.408,59.664z M236.82,56.982V56.98c4.904,0,9.466-1.456,13.284-3.953
	l-36.089-4.385l-9.167,56.973h31.973c13.428,0,24.315-10.886,24.315-24.318C261.135,67.869,250.248,56.982,236.82,56.982z
	 M344.643,64.477l-21.805-2.617l-9.007,43.756h42.8V86.764h-11.988V64.477z M267.818,55.179v50.436h43.84l9.057-44.014
	L267.818,55.179z M82.248,42.771l-57.642-5.412l10.504,68.376h29.531V68.322h26.674V47.337h-9.067V42.771z M365.494,67.039v38.576
	h52.512l-12.178-33.674L365.494,67.039z M284.17,8.351h-16.352v44.682l51.758,6.286L284.17,8.351z M59.11,8.265H7.338v97.47h25.616
	L22.197,35.7L59.11,8.265z M425.363,45.832l-18.984-37.48h-40.885v56.546l40.652,4.94L425.363,45.832z M448,17.559
	c-6.086-6.221-15.449-9.208-27.314-9.208h-11.92l18.061,35.651L448,17.559z M454.467,49.311c0.951-2.797,1.463-5.817,1.463-8.995
	c0-9.013-2.281-16.022-6.49-21.154l-21.086,26.342L454.467,49.311z M453.674,51.352l-26.871-3.911l-18.99,23.718l12.461,34.456
	h37.844L435.85,66.543C444.168,64.112,450.5,58.61,453.674,51.352z"/>
</svg>
