<?xml version="1.0" encoding="utf-8"?>
<!-- Generator: Adobe Illustrator 17.0.0, SVG Export Plug-In . SVG Version: 6.00 Build 0)  -->
<!DOCTYPE svg PUBLIC "-//W3C//DTD SVG 1.0//EN" "http://www.w3.org/TR/2001/REC-SVG-20010904/DTD/svg10.dtd" [
	<!ENTITY ns_extend "http://ns.adobe.com/Extensibility/1.0/">
	<!ENTITY ns_ai "http://ns.adobe.com/AdobeIllustrator/10.0/">
	<!ENTITY ns_graphs "http://ns.adobe.com/Graphs/1.0/">
	<!ENTITY ns_vars "http://ns.adobe.com/Variables/1.0/">
	<!ENTITY ns_imrep "http://ns.adobe.com/ImageReplacement/1.0/">
	<!ENTITY ns_sfw "http://ns.adobe.com/SaveForWeb/1.0/">
	<!ENTITY ns_custom "http://ns.adobe.com/GenericCustomNamespace/1.0/">
	<!ENTITY ns_adobe_xpath "http://ns.adobe.com/XPath/1.0/">
]>
<svg version="1.0" id="Layer_1" xmlns:x="&ns_extend;" xmlns:i="&ns_ai;" xmlns:graph="&ns_graphs;"
	 xmlns="http://www.w3.org/2000/svg" xmlns:xlink="http://www.w3.org/1999/xlink" x="0px" y="0px" width="1000px" height="1000px"
	 viewBox="0 0 1000 1000" enable-background="new 0 0 1000 1000" xml:space="preserve">
<metadata>
	<sfw  xmlns="&ns_sfw;">
		<slices></slices>
		<sliceSourceBounds  bottomLeftOrigin="true" x="170.183" y="-992.231" width="662.329" height="989.561"></sliceSourceBounds>
	</sfw>
</metadata>
<path fill="#F63420" d="M212.917,950.011c-4.777-5.104-10.764-7.654-17.967-7.654c-7.272,0-13.214,2.532-17.836,7.6
	c-4.617,5.064-6.931,10.868-6.931,17.398c0,6.625,2.313,12.429,6.931,17.417c4.622,4.988,10.565,7.459,17.836,7.459
	c7.203,0,13.19-2.471,17.967-7.459c4.789-4.988,7.17-10.792,7.17-17.417C220.088,960.907,217.706,955.119,212.917,950.011"/>
<path fill="#252525" d="M609.04,932.053c1.734-9.363,2.65-19.815,2.65-31.439V784.045c0-32.246-6.741-55.838-20.174-70.801
	c-13.455-14.942-30.9-22.405-52.301-22.405c-21.43,0-38.866,7.464-52.316,22.405c-13.446,14.963-20.169,38.555-20.169,70.801
	v116.569c0,22.535,3.352,40.739,9.917,54.787l32.886-5.795c-6.585-9.128-9.927-25.379-9.927-48.993V784.045
	c0-24.288,3.474-40.904,10.405-49.877c6.942-8.971,16.62-13.444,29.01-13.444c12.391,0,22.113,4.521,29.185,13.541
	c7.072,9.02,10.617,25.64,10.617,49.78v116.569c0,15.95-1.714,28.273-4.784,37.613L609.04,932.053z M357.625,962.082V722.967h36.606
	V694.95H288.125v28.017h36.622v239.115h-46.504v28.026h1.593l124.302-21.916v-6.11H357.625z"/>
<path fill="#252525" d="M831.284,545.539c0.751-7.198,1.228-14.69,1.228-22.63v-56.975c0-38.361-8.835-67.468-26.446-87.341
	c-17.623-19.862-41.517-29.796-71.639-29.796h-48.764v222.42l32.886-5.804V376.821h16.014c19.765,0,35.343,7.324,46.79,21.958
	c11.425,14.63,17.143,37.015,17.143,67.154v56.975c0,10.608-0.925,20.011-2.29,28.805L831.284,545.539z M625.142,581.885V348.796
	h-32.888v9.156l7.483,150.765l-83.693-159.921h-32.876v258.122l32.876-5.776V545.52l-7.48-150.755l83.69,159.912l0.973,32.848
	L625.142,581.885z M433.601,615.656c-1.876-28.95-10.135-72.552-24.797-130.843l-34.186-136.017h-36.987l-34.182,136.017
	c-16.808,66.864-25.23,114.439-25.23,142.71v15.536l32.891-5.795v-9.742c0-13.317,1.804-30.88,5.427-52.672h79.012
	c3.209,18.701,4.957,34.094,5.416,46.571L433.601,615.656z M390.321,546.825h-68.57c2.743-13.327,6.045-27.918,9.907-43.716
	l24.466-102.002l24.488,102.002C384.334,518.907,387.588,533.498,390.321,546.825"/>
<polygon fill="#252525" points="420.211,271.42 420.211,2.67 387.325,2.67 387.325,11.818 394.806,162.573 311.114,2.67 
	278.228,2.67 278.228,296.457 311.114,290.66 311.114,199.384 303.633,48.62 387.325,208.532 389.327,276.856 "/>
<g>
</g>
<g>
</g>
<g>
</g>
<g>
</g>
<g>
</g>
<g>
</g>
</svg>
