<?xml version="1.0" encoding="utf-8"?>
<!-- Generator: Adobe Illustrator 16.0.0, SVG Export Plug-In . SVG Version: 6.00 Build 0)  -->
<!DOCTYPE svg PUBLIC "-//W3C//DTD SVG 1.1//EN" "http://www.w3.org/Graphics/SVG/1.1/DTD/svg11.dtd">
<svg version="1.1" id="Ebene_1" xmlns="http://www.w3.org/2000/svg" xmlns:xlink="http://www.w3.org/1999/xlink" x="0px" y="0px"
	 width="1920px" height="350.301px" viewBox="0 0 1920 350.301" enable-background="new 0 0 1920 350.301" xml:space="preserve">
<g id="XMLID_5_">
	<g id="XMLID_7_">
		<path id="XMLID_32_" d="M86.103,335.725c-51.018,0-85.237-34.219-85.237-88.348c0-54.128,34.219-88.347,85.237-88.347
			s85.236,34.219,85.236,88.347C171.339,301.506,137.121,335.725,86.103,335.725z M86.103,199.471
			c-23.642,0-37.33,16.799-37.33,47.906c0,30.486,13.688,47.907,37.33,47.907s37.33-16.798,37.33-47.907
			C123.433,216.27,109.745,199.471,86.103,199.471z"/>
		<path id="XMLID_30_" d="M359.855,332.614h-41.063l-3.733-3.111v-99.546c0-16.799-6.844-30.486-27.375-30.486
			c-23.643,0-37.33,13.688-37.33,44.174v85.236l-3.111,3.111H206.18l-3.111-3.111V165.252l3.111-3.111h37.33l3.111,3.111
			l3.111,9.955h3.111c6.844-6.844,20.531-16.799,44.173-16.799c41.063,0,64.705,27.375,64.705,68.438v102.035L359.855,332.614z"/>
		<path id="XMLID_28_" d="M514.152,97.436v34.219l-3.111,3.111h-30.486c-6.844,0-9.955,3.111-9.955,9.955v13.688l3.111,3.11h34.219
			l3.733,3.111v34.219l-3.733,3.111h-34.219l-3.111,3.11v122.566l-3.11,3.111h-41.062l-3.11-3.111V205.07l-3.733-3.11h-23.642
			l-3.733-3.111V164.63l3.733-3.111h23.642l3.733-3.11v-13.688c0-37.33,27.375-51.018,57.86-51.018h30.486L514.152,97.436z"/>
		<path id="XMLID_25_" d="M616.811,335.725c-51.019,0-85.237-34.219-85.237-88.348c0-54.128,34.219-88.347,85.237-88.347
			c51.018,0,85.235,34.219,85.235,88.347C702.046,301.506,668.449,335.725,616.811,335.725z M616.811,199.471
			c-23.644,0-37.33,16.799-37.33,47.906c0,30.486,13.688,47.907,37.33,47.907c23.642,0,37.329-16.798,37.329-47.907
			C654.762,216.27,641.074,199.471,616.811,199.471z"/>
		<path id="XMLID_23_" d="M842.655,202.582h-23.644c-27.375,0-37.33,13.688-37.33,44.174v81.503l-3.109,3.111H737.51l-3.111-3.111
			V164.63l3.111-3.111h37.329l3.111,3.111l3.11,9.954h3.732c0,0,6.844-13.688,37.33-13.688h20.531l3.109,3.111v34.219
			L842.655,202.582z"/>
		<path id="XMLID_21_" d="M1130.096,332.614h-41.062l-3.733-3.111v-99.546c0-16.799-6.844-30.486-27.375-30.486
			s-30.485,13.688-30.485,37.33v92.08l-3.11,3.111h-40.44l-3.11-3.111v-98.924c0-16.799-6.845-30.486-27.375-30.486
			c-20.531,0-30.486,13.688-30.486,37.33v92.08l-3.11,3.111H878.74l-3.11-3.111V165.252l3.11-3.111h37.33l3.11,3.111l3.11,9.955
			h3.732c0,0,9.955-16.799,41.062-16.799c27.375,0,41.062,13.688,47.907,23.643h3.731c0,0,13.688-23.643,51.019-23.643
			c41.062,0,64.705,23.643,64.705,68.438v102.035L1130.096,332.614z"/>
		<path id="XMLID_18_" d="M1308.034,332.614h-37.33l-3.732-3.111l-3.11-6.844h-3.11c0,0-13.688,13.688-37.33,13.688
			c-37.33,0-61.595-20.53-61.595-54.75c0-51.018,47.907-57.861,75.282-57.861c13.688,0,23.643,3.11,23.643,3.11l3.11-3.11v-3.11
			c0-16.799-3.11-20.531-23.643-20.531c-9.955,0-20.531,0-23.643,9.954l-3.111,3.11h-41.062l-3.732-3.11
			c0-20.531,16.798-51.018,71.549-51.018c54.75,0,71.55,26.753,71.55,77.771v92.08L1308.034,332.614z M1260.75,261.064
			c0,0-6.844-3.11-20.531-3.11c-20.531,0-30.485,6.844-30.485,20.531c0,9.955,6.844,16.799,23.643,16.799
			c16.798,0,30.485-9.955,30.485-23.643v-6.844L1260.75,261.064z"/>
		<path id="XMLID_16_" d="M1415.047,280.975c0,6.844,3.732,9.954,9.954,9.954h30.486l3.109,3.111v34.219l-3.109,3.111h-30.486
			c-30.485,0-57.861-13.688-57.861-51.018v-74.66l-3.109-3.11h-23.644l-3.11-3.111v-34.219l3.11-3.111h23.644l3.109-3.11v-30.486
			l3.111-3.11h41.062l3.11,3.11v30.486l3.733,3.11h37.33l3.109,3.111v34.219l-3.109,3.111h-37.33l-3.733,3.11L1415.047,280.975
			L1415.047,280.975z"/>
		<path id="XMLID_13_" d="M1538.234,134.766h-41.062l-3.732-3.111V97.436l3.732-3.11h41.062l3.732,3.11v34.219L1538.234,134.766z
			 M1538.234,332.614h-41.062l-3.732-3.111V165.874l3.732-3.11h41.062l3.732,3.11v163.629L1538.234,332.614z"/>
		<path id="XMLID_11_" d="M1675.732,328.881l-3.109,3.111h-37.33l-3.111-3.111l-57.86-129.41v-34.219l3.733-3.111h30.485l3.11,3.111
			l41.062,105.768h3.111l41.062-105.768l3.111-3.111h30.486l3.109,3.111v34.219L1675.732,328.881z"/>
		<path id="XMLID_8_" d="M1918.378,261.064l-3.11,3.111h-105.769l-3.11,3.111c0,6.844,6.845,27.375,34.22,27.375
			c9.954,0,20.53-3.111,23.643-9.955l3.11-3.11h41.062l3.111,3.11c-3.111,20.531-20.532,51.018-71.549,51.018
			c-57.861,0-85.237-41.062-85.237-88.348c0-47.906,27.376-88.347,81.504-88.347c54.129,0,81.504,41.062,81.504,88.347
			L1918.378,261.064L1918.378,261.064z M1867.359,226.846c0-3.11-3.109-27.375-30.485-27.375c-27.375,0-30.485,23.643-30.485,27.375
			l3.11,3.111h54.751L1867.359,226.846z"/>
	</g>
	<rect id="XMLID_6_" x="-1" y="1" width="1920" height="15.555"/>
</g>
</svg>
