<?xml version="1.0" encoding="utf-8"?>
<!-- Generator: Adobe Illustrator 16.0.0, SVG Export Plug-In . SVG Version: 6.00 Build 0)  -->
<!DOCTYPE svg PUBLIC "-//W3C//DTD SVG 1.1//EN" "http://www.w3.org/Graphics/SVG/1.1/DTD/svg11.dtd">
<svg version="1.1" id="Ebene_1" xmlns="http://www.w3.org/2000/svg" xmlns:xlink="http://www.w3.org/1999/xlink" x="0px" y="0px"
	 width="377.98px" height="456.821px" viewBox="0 11.155 377.98 456.821" enable-background="new 0 11.155 377.98 456.821"
	 xml:space="preserve">
<g id="Timeline">
	<g>
		<g>
			<line fill="none" stroke="#000000" stroke-width="0.3" stroke-miterlimit="10" x1="40.905" y1="54.59" x2="46.905" y2="54.59"/>
			
				<line fill="none" stroke="#000000" stroke-width="0.3" stroke-miterlimit="10" stroke-dasharray="11.6481,11.6481" x1="58.552" y1="54.59" x2="355.58" y2="54.59"/>
			
				<line fill="none" stroke="#000000" stroke-width="0.3" stroke-miterlimit="10" x1="361.404" y1="54.59" x2="367.404" y2="54.59"/>
		</g>
	</g>
	<g>
		<g>
			
				<line fill="none" stroke="#000000" stroke-width="0.3" stroke-miterlimit="10" x1="40.905" y1="82.937" x2="46.905" y2="82.937"/>
			
				<line fill="none" stroke="#000000" stroke-width="0.3" stroke-miterlimit="10" stroke-dasharray="11.6481,11.6481" x1="58.552" y1="82.937" x2="355.58" y2="82.937"/>
			
				<line fill="none" stroke="#000000" stroke-width="0.3" stroke-miterlimit="10" x1="361.404" y1="82.937" x2="367.404" y2="82.937"/>
		</g>
	</g>
	<g>
		<g>
			
				<line fill="none" stroke="#000000" stroke-width="0.3" stroke-miterlimit="10" x1="40.905" y1="111.284" x2="46.905" y2="111.284"/>
			
				<line fill="none" stroke="#000000" stroke-width="0.3" stroke-miterlimit="10" stroke-dasharray="11.6481,11.6481" x1="58.552" y1="111.284" x2="355.58" y2="111.284"/>
			
				<line fill="none" stroke="#000000" stroke-width="0.3" stroke-miterlimit="10" x1="361.404" y1="111.284" x2="367.404" y2="111.284"/>
		</g>
	</g>
	<g>
		<g>
			
				<line fill="none" stroke="#000000" stroke-width="0.3" stroke-miterlimit="10" x1="40.905" y1="139.63" x2="46.905" y2="139.63"/>
			
				<line fill="none" stroke="#000000" stroke-width="0.3" stroke-miterlimit="10" stroke-dasharray="11.6481,11.6481" x1="58.552" y1="139.63" x2="355.58" y2="139.63"/>
			
				<line fill="none" stroke="#000000" stroke-width="0.3" stroke-miterlimit="10" x1="361.404" y1="139.63" x2="367.404" y2="139.63"/>
		</g>
	</g>
	<g>
		<g>
			
				<line fill="none" stroke="#000000" stroke-width="0.3" stroke-miterlimit="10" x1="40.905" y1="167.977" x2="46.905" y2="167.977"/>
			
				<line fill="none" stroke="#000000" stroke-width="0.3" stroke-miterlimit="10" stroke-dasharray="11.6481,11.6481" x1="58.552" y1="167.977" x2="355.58" y2="167.977"/>
			
				<line fill="none" stroke="#000000" stroke-width="0.3" stroke-miterlimit="10" x1="361.404" y1="167.977" x2="367.404" y2="167.977"/>
		</g>
	</g>
	<g>
		<g>
			
				<line fill="none" stroke="#000000" stroke-width="0.3" stroke-miterlimit="10" x1="40.905" y1="196.324" x2="46.905" y2="196.324"/>
			
				<line fill="none" stroke="#000000" stroke-width="0.3" stroke-miterlimit="10" stroke-dasharray="11.6481,11.6481" x1="58.552" y1="196.324" x2="355.58" y2="196.324"/>
			
				<line fill="none" stroke="#000000" stroke-width="0.3" stroke-miterlimit="10" x1="361.404" y1="196.324" x2="367.404" y2="196.324"/>
		</g>
	</g>
	<text transform="matrix(1 0 0 1 8.4241 57.3975)" font-family="'AtlasGrotesk-Regular'" font-size="9">10:00</text>
	<text transform="matrix(1 0 0 1 8.4241 85.7441)" font-family="'AtlasGrotesk-Regular'" font-size="9">11:00</text>
	<text transform="matrix(1 0 0 1 8.4241 114.0908)" font-family="'AtlasGrotesk-Regular'" font-size="9">12:00</text>
	<text transform="matrix(1 0 0 1 8.4241 142.4375)" font-family="'AtlasGrotesk-Regular'" font-size="9">13:00</text>
	<text transform="matrix(1 0 0 1 8.4241 170.7832)" font-family="'AtlasGrotesk-Regular'" font-size="9">14:00</text>
	<text transform="matrix(1 0 0 1 8.4241 199.1299)" font-family="'AtlasGrotesk-Regular'" font-size="9">15:00</text>
	<g>
		<g>
			
				<line fill="none" stroke="#000000" stroke-width="0.3" stroke-miterlimit="10" x1="40.905" y1="224.67" x2="46.905" y2="224.67"/>
			
				<line fill="none" stroke="#000000" stroke-width="0.3" stroke-miterlimit="10" stroke-dasharray="11.6481,11.6481" x1="58.552" y1="224.67" x2="355.58" y2="224.67"/>
			
				<line fill="none" stroke="#000000" stroke-width="0.3" stroke-miterlimit="10" x1="361.404" y1="224.67" x2="367.404" y2="224.67"/>
		</g>
	</g>
	<text transform="matrix(1 0 0 1 8.4241 227.4766)" font-family="'AtlasGrotesk-Regular'" font-size="9">16:00</text>
	<g>
		<g>
			
				<line fill="none" stroke="#000000" stroke-width="0.3" stroke-miterlimit="10" x1="40.905" y1="253.018" x2="46.905" y2="253.018"/>
			
				<line fill="none" stroke="#000000" stroke-width="0.3" stroke-miterlimit="10" stroke-dasharray="11.6481,11.6481" x1="58.552" y1="253.018" x2="355.58" y2="253.018"/>
			
				<line fill="none" stroke="#000000" stroke-width="0.3" stroke-miterlimit="10" x1="361.404" y1="253.018" x2="367.404" y2="253.018"/>
		</g>
	</g>
	<text transform="matrix(1 0 0 1 8.4241 255.8242)" font-family="'AtlasGrotesk-Regular'" font-size="9">17:00</text>
	<g>
		<g>
			
				<line fill="none" stroke="#000000" stroke-width="0.3" stroke-miterlimit="10" x1="40.905" y1="281.364" x2="46.905" y2="281.364"/>
			
				<line fill="none" stroke="#000000" stroke-width="0.3" stroke-miterlimit="10" stroke-dasharray="11.6481,11.6481" x1="58.552" y1="281.364" x2="355.58" y2="281.364"/>
			
				<line fill="none" stroke="#000000" stroke-width="0.3" stroke-miterlimit="10" x1="361.404" y1="281.364" x2="367.404" y2="281.364"/>
		</g>
	</g>
	<text transform="matrix(1 0 0 1 8.4241 284.1699)" font-family="'AtlasGrotesk-Regular'" font-size="9">18:00</text>
	<g>
		<g>
			
				<line fill="none" stroke="#000000" stroke-width="0.3" stroke-miterlimit="10" x1="40.905" y1="309.71" x2="46.905" y2="309.71"/>
			
				<line fill="none" stroke="#000000" stroke-width="0.3" stroke-miterlimit="10" stroke-dasharray="11.6481,11.6481" x1="58.552" y1="309.71" x2="355.58" y2="309.71"/>
			
				<line fill="none" stroke="#000000" stroke-width="0.3" stroke-miterlimit="10" x1="361.404" y1="309.71" x2="367.404" y2="309.71"/>
		</g>
	</g>
	<text transform="matrix(1 0 0 1 8.4241 312.5156)" font-family="'AtlasGrotesk-Regular'" font-size="9">19:00</text>
	<g>
		<g>
			
				<line fill="none" stroke="#000000" stroke-width="0.3" stroke-miterlimit="10" x1="40.905" y1="338.057" x2="46.905" y2="338.057"/>
			
				<line fill="none" stroke="#000000" stroke-width="0.3" stroke-miterlimit="10" stroke-dasharray="11.6481,11.6481" x1="58.552" y1="338.057" x2="355.58" y2="338.057"/>
			
				<line fill="none" stroke="#000000" stroke-width="0.3" stroke-miterlimit="10" x1="361.404" y1="338.057" x2="367.404" y2="338.057"/>
		</g>
	</g>
	<text transform="matrix(1 0 0 1 8.4241 340.8633)" font-family="'AtlasGrotesk-Regular'" font-size="9">20:00</text>
	<g>
		<g>
			
				<line fill="none" stroke="#000000" stroke-width="0.3" stroke-miterlimit="10" x1="40.905" y1="366.404" x2="46.905" y2="366.404"/>
			
				<line fill="none" stroke="#000000" stroke-width="0.3" stroke-miterlimit="10" stroke-dasharray="11.6481,11.6481" x1="58.552" y1="366.404" x2="355.58" y2="366.404"/>
			
				<line fill="none" stroke="#000000" stroke-width="0.3" stroke-miterlimit="10" x1="361.404" y1="366.404" x2="367.404" y2="366.404"/>
		</g>
	</g>
	<text transform="matrix(1 0 0 1 8.4241 369.209)" font-family="'AtlasGrotesk-Regular'" font-size="9">21:00</text>
	<g>
		<g>
			
				<line fill="none" stroke="#000000" stroke-width="0.3" stroke-miterlimit="10" x1="40.905" y1="394.75" x2="46.905" y2="394.75"/>
			
				<line fill="none" stroke="#000000" stroke-width="0.3" stroke-miterlimit="10" stroke-dasharray="11.6481,11.6481" x1="58.552" y1="394.75" x2="355.58" y2="394.75"/>
			
				<line fill="none" stroke="#000000" stroke-width="0.3" stroke-miterlimit="10" x1="361.404" y1="394.75" x2="367.404" y2="394.75"/>
		</g>
	</g>
	<text transform="matrix(1 0 0 1 8.4241 397.5557)" font-family="'AtlasGrotesk-Regular'" font-size="9">22:00</text>
	<g>
		<g>
			
				<line fill="none" stroke="#000000" stroke-width="0.3" stroke-miterlimit="10" x1="40.905" y1="423.097" x2="46.905" y2="423.097"/>
			
				<line fill="none" stroke="#000000" stroke-width="0.3" stroke-miterlimit="10" stroke-dasharray="11.6481,11.6481" x1="58.552" y1="423.097" x2="355.58" y2="423.097"/>
			
				<line fill="none" stroke="#000000" stroke-width="0.3" stroke-miterlimit="10" x1="361.404" y1="423.097" x2="367.404" y2="423.097"/>
		</g>
	</g>
	<text transform="matrix(1 0 0 1 8.4241 425.9023)" font-family="'AtlasGrotesk-Regular'" font-size="9">23:00</text>
	<g>
		<g>
			
				<line fill="none" stroke="#000000" stroke-width="0.3" stroke-miterlimit="10" x1="40.905" y1="451.444" x2="46.905" y2="451.444"/>
			
				<line fill="none" stroke="#000000" stroke-width="0.3" stroke-miterlimit="10" stroke-dasharray="11.6481,11.6481" x1="58.552" y1="451.444" x2="355.58" y2="451.444"/>
			
				<line fill="none" stroke="#000000" stroke-width="0.3" stroke-miterlimit="10" x1="361.404" y1="451.444" x2="367.404" y2="451.444"/>
		</g>
	</g>
	<text transform="matrix(1 0 0 1 8.4241 454.248)" font-family="'AtlasGrotesk-Regular'" font-size="9">  0:00</text>
	<rect x="59.567" y="12.459" fill="#FFFFFF" stroke="#000000" stroke-miterlimit="10" width="93.832" height="15.134"/>
	<rect x="159.452" y="12.459" fill="#FFFFFF" stroke="#000000" stroke-miterlimit="10" width="93.831" height="15.134"/>
	<rect x="261.354" y="12.459" fill="#FFFFFF" stroke="#000000" stroke-miterlimit="10" width="93.833" height="15.134"/>
	<text transform="matrix(1 0 0 1 68.1648 24.5381)" font-family="'AtlasGrotesk-Regular'" font-size="11.0782">Thursday, 6.10.</text>
	<text transform="matrix(1 0 0 1 174.9724 24.5381)" font-family="'AtlasGrotesk-Regular'" font-size="11.0782">Friday, 7.10.</text>
	<text transform="matrix(1 0 0 1 270.572 24.5381)" font-family="'AtlasGrotesk-Regular'" font-size="11.0782">Saturday, 8.10.</text>
</g>
<g id="Ebene_1_1_">
	<rect x="59.858" y="281.398" fill="#FFFFFF" stroke="#000000" stroke-miterlimit="10" width="93.832" height="54.861"/>
	<rect x="262.525" y="196.398" fill="#FFFFFF" stroke="#000000" stroke-miterlimit="10" width="93.832" height="55.195"/>
	<rect x="262.525" y="253.398" fill="#FFFFFF" stroke="#000000" stroke-miterlimit="10" width="93.832" height="28.527"/>
	<rect x="59.858" y="340.398" fill="#FFFFFF" stroke="#000000" stroke-miterlimit="10" width="93.832" height="111.861"/>
	<rect x="260.858" y="69.398" fill="#FFFFFF" stroke="#000000" stroke-miterlimit="10" width="93.832" height="85.862"/>
	<rect x="158.859" y="196.398" fill="#FFFFFF" stroke="#000000" stroke-miterlimit="10" width="93.832" height="71.862"/>
	<rect x="158.858" y="69.398" fill="#FFFFFF" stroke="#000000" stroke-miterlimit="10" width="93.832" height="84.862"/>
	<text transform="matrix(1 0 0 1 64.4045 295.3965)" font-family="'AtlasGrotesk-Regular'" font-size="9">Festival Opening, </text>
	<text transform="matrix(1 0 0 1 64.4045 306.1963)" font-family="'AtlasGrotesk-Regular'" font-size="9">Performance &amp;</text>
	<text transform="matrix(1 0 0 1 64.4045 316.9971)" font-family="'AtlasGrotesk-Regular'" font-size="9">Keynote</text>
	<text transform="matrix(1 0 0 1 65.4045 330.9531)" font-family="'CourierNewPSMT'" font-size="9">&gt; Church</text>
	<rect x="159.524" y="295.398" fill="#FFFFFF" stroke="#000000" stroke-miterlimit="10" width="93.832" height="57.861"/>
	<text transform="matrix(1 0 0 1 163.0701 309.3965)" font-family="'AtlasGrotesk-Regular'" font-size="9">Keynotes &amp; </text>
	<text transform="matrix(1 0 0 1 163.0701 320.1973)" font-family="'AtlasGrotesk-Regular'" font-size="9">Performance</text>
	<text transform="matrix(1 0 0 1 164.0701 347.9551)" font-family="'CourierNewPSMT'" font-size="9">&gt; Church</text>
	<rect x="261.857" y="284.398" fill="#FFFFFF" stroke="#000000" stroke-miterlimit="10" width="93.832" height="51.195"/>
	<text transform="matrix(1 0 0 1 266.4041 298.3965)" font-family="'AtlasGrotesk-Regular'" font-size="9">Post Festival </text>
	<text transform="matrix(1 0 0 1 266.4041 309.1963)" font-family="'AtlasGrotesk-Regular'" font-size="9">Hangout</text>
	<text transform="matrix(1 0 0 1 64.4045 351.3965)" font-family="'AtlasGrotesk-Regular'" font-size="9">Get Together,</text>
	<text transform="matrix(1 0 0 1 64.4045 362.1963)" font-family="'AtlasGrotesk-Regular'" font-size="9">Performances</text>
	<text transform="matrix(1 0 0 1 65.4045 443.9561)" font-family="'CourierNewPSMT'" font-size="9">&gt; Main Venue</text>
	<rect x="158.858" y="366.731" fill="#FFFFFF" stroke="#000000" stroke-miterlimit="10" width="93.832" height="84.861"/>
	<text transform="matrix(1 0 0 1 163.4041 377.7314)" font-family="'AtlasGrotesk-Regular'" font-size="9">Performances &amp; </text>
	<text transform="matrix(1 0 0 1 163.4041 388.5312)" font-family="'AtlasGrotesk-Regular'" font-size="9">Night Program</text>
	<text transform="matrix(1 0 0 1 164.4041 443.2891)" font-family="'CourierNewPSMT'" font-size="9">&gt; Main Venue</text>
	<text transform="matrix(1 0 0 1 162.4041 82.3984)" font-family="'AtlasGrotesk-Regular'" font-size="9">8 parallel talks and</text>
	<text transform="matrix(1 0 0 1 162.4041 93.1992)" font-family="'AtlasGrotesk-Regular'" font-size="9">workshops</text>
	<text transform="matrix(1 0 0 1 163.4041 147.623)" font-family="'CourierNewPSMT'" font-size="9">&gt; Main Venue</text>
	<rect x="59.525" y="54.398" fill="#FFFFFF" stroke="#000000" stroke-miterlimit="10" width="93.833" height="170.862"/>
	<text transform="matrix(1 0 0 1 63.071 67.3975)" font-family="'AtlasGrotesk-Regular'" font-size="9">Full-day workshops</text>
	<text transform="matrix(1 0 0 1 64.071 218.6279)" font-family="'CourierNewPSMT'" font-size="9">&gt; Main Venue</text>
	<text transform="matrix(1 0 0 1 162.4041 208.3984)" font-family="'AtlasGrotesk-Regular'" font-size="9">8 parallel talks and</text>
	<text transform="matrix(1 0 0 1 162.4041 219.1992)" font-family="'AtlasGrotesk-Regular'" font-size="9">workshops</text>
	<text transform="matrix(1 0 0 1 163.4041 262.2871)" font-family="'CourierNewPSMT'" font-size="9">&gt; Main Venue</text>
	<text transform="matrix(1 0 0 1 265.072 82.3984)" font-family="'AtlasGrotesk-Regular'" font-size="9">8 parallel talks and</text>
	<text transform="matrix(1 0 0 1 265.072 93.1992)" font-family="'AtlasGrotesk-Regular'" font-size="9">workshops</text>
	<text transform="matrix(1 0 0 1 266.072 147.623)" font-family="'CourierNewPSMT'" font-size="9">&gt; Main Venue</text>
	<text transform="matrix(1 0 0 1 266.072 245.623)" font-family="'CourierNewPSMT'" font-size="9">&gt; Main Venue</text>
	<text transform="matrix(1 0 0 1 266.072 278.291)" font-family="'CourierNewPSMT'" font-size="9">&gt; Main Venue</text>
	<text transform="matrix(1 0 0 1 266.072 331.625)" font-family="'CourierNewPSMT'" font-size="9">&gt; Main Venue</text>
	<text transform="matrix(1 0 0 1 265.072 208.3984)" font-family="'AtlasGrotesk-Regular'" font-size="9">8 parallel talks and</text>
	<text transform="matrix(1 0 0 1 265.072 219.1992)" font-family="'AtlasGrotesk-Regular'" font-size="9">workshops</text>
	<text transform="matrix(1 0 0 1 265.072 266.7305)" font-family="'AtlasGrotesk-Regular'" font-size="9">Closing &amp; Feedback</text>
</g>
</svg>
