<?xml version="1.0" encoding="utf-8"?>
<!-- Generator: Adobe Illustrator 16.0.0, SVG Export Plug-In . SVG Version: 6.00 Build 0)  -->
<!DOCTYPE svg PUBLIC "-//W3C//DTD SVG 1.1//EN" "http://www.w3.org/Graphics/SVG/1.1/DTD/svg11.dtd">
<svg version="1.1" id="Ebene_1" xmlns="http://www.w3.org/2000/svg" xmlns:xlink="http://www.w3.org/1999/xlink" x="0px" y="0px"
	 width="577.472px" height="190.491px" viewBox="0 0 577.472 190.491" enable-background="new 0 0 577.472 190.491"
	 xml:space="preserve">
<polygon points="520.604,130.223 50.688,130.223 50.365,121.973 520.282,121.973 "/>
<g>
	<path d="M31.175,19.398v76.259H19.547V19.398H6.449V9.239h38.19v10.16H31.175z"/>
	<path d="M73.774,95.657V55.508H63.247v40.149H51.863V9.239h11.384v35.13h10.527V9.239h11.384v86.418H73.774z"/>
	<path d="M96.787,95.657V9.239h28.521V20.01h-17.015v25.338h15.179V56.12h-15.056v28.643h16.892v10.894H96.787z"/>
	<path d="M191.654,89.17c-2.081,3.06-6.488,7.589-15.668,7.589c-8.813,0-13.221-4.04-15.301-7.1
		c-3.061-4.406-3.061-9.792-3.061-14.811v-41.74c0-1.958,0.122-3.917,0.245-5.875c0.244-3.305,0.856-14.199,11.873-17.749
		c2.448-0.857,4.529-1.102,7.222-1.102c6.365,0,9.793,1.958,11.996,3.794c1.836,1.469,3.183,3.305,4.039,5.386
		c1.714,3.917,1.836,7.834,1.836,11.996v11.017H183.33V27.232c0-1.836,0.612-8.936-6.977-8.936c-2.448,0-3.673,0.735-4.651,1.469
		c-2.815,2.448-2.571,6.12-2.571,9.425v47.738c0,0.979,0,1.958,0.123,2.938c0.122,2.326,0.489,6.978,6.854,6.978
		c0.734,0,2.692,0.122,4.406-1.224c2.938-2.081,2.815-5.753,2.815-8.936v-16.77h11.506v16.158
		C194.836,80.846,194.469,85.008,191.654,89.17z"/>
	<path d="M239.518,86.477c-3.673,10.16-14.934,10.038-17.505,10.038c-0.979,0-4.284,0-7.222-1.102
		c-2.325-0.857-7.467-3.795-9.303-10.527c-0.734-2.57-0.856-4.162-0.856-9.058V32.741c0-7.712,0-15.179,6.732-20.319
		c2.08-1.591,5.753-3.795,11.873-3.795c1.836,0,6.977,0,11.262,3.427c2.203,1.714,3.427,3.672,3.917,4.652
		c2.447,4.284,2.57,8.813,2.57,18.483v41.128C240.986,79.622,240.741,83.172,239.518,86.477z M229.603,31.761
		c0-5.263,0-8.568-1.347-10.649c-0.734-1.102-2.203-2.57-5.264-2.57c-0.612,0-2.57,0.123-4.161,1.224
		c-3.061,1.958-2.815,5.508-2.815,11.996v46.27c0,4.651,0.734,9.058,6.609,9.058c7.345,0,6.978-6.61,6.978-11.751V31.761z"/>
	<path d="M275.507,95.657l-13.832-63.406l0.979,63.406h-10.649V9.239h12.241l13.587,58.877l-0.49-58.877h10.772v86.418H275.507z"/>
	<path d="M322.024,95.902c-1.469,0.612-3.795,1.347-7.59,1.347c-6.977,0-10.771-2.938-12.607-5.141
		c-3.55-4.04-3.795-8.691-3.795-13.709V64.077h10.527v15.79c0,4.162,0.611,5.998,2.447,7.222c0.49,0.367,1.592,1.102,3.428,1.102
		c5.631-0.123,5.51-6.243,5.51-10.16c0-6.243-0.98-9.67-4.162-15.056c-3.184-5.63-7.1-10.649-10.404-16.157
		c-1.838-2.938-6.611-10.282-6.611-20.319c0-9.548,4.162-14.566,7.713-16.647c1.836-1.102,4.895-2.326,9.791-2.326
		c2.326,0,11.018-0.123,13.711,8.324c0.488,1.591,0.855,3.06,0.855,6.487v15.301h-10.404V22.336
		c-0.121-0.979,0.246-5.875-4.529-5.875c-5.508,0-5.631,4.774-5.631,8.813c0,7.222,1.959,11.261,5.754,17.259
		c1.592,2.57,3.305,5.019,5.02,7.589c1.346,1.836,2.57,3.672,3.793,5.631c5.998,9.425,6.732,15.913,6.732,20.931
		C331.571,78.521,331.694,91.496,322.024,95.902z"/>
	<path d="M362.175,19.398v76.259h-11.629V19.398h-13.098V9.239h38.191v10.16H362.175z"/>
	<path d="M425.827,19.398v76.259H414.2V19.398h-13.098V9.239h38.189v10.16H425.827z"/>
	<path d="M514.942,19.398v76.259h-11.627V19.398h-13.098V9.239h38.189v10.16H514.942z"/>
	<path d="M535.999,95.657V9.239h28.521V20.01h-17.016v25.338h15.178V56.12h-15.055v28.643h16.893v10.894H535.999z"/>
	<path d="M382.618,95.657V9.239h11.262v86.418H382.618z"/>
	<path d="M481.769,85.008c-3.182,11.384-14.076,11.996-17.504,11.996c-3.059,0-12.607-0.612-16.156-10.16
		c-0.98-2.448-1.469-4.896-1.469-10.16V9.239h11.139v66.833c0,4.896-0.123,11.506,6.854,11.506c0.734,0,2.816,0,4.408-1.347
		c2.447-2.081,2.57-5.141,2.57-10.894V9.239h11.26v65.487C482.87,75.46,482.87,80.968,481.769,85.008z"/>
</g>
<g>
	<path d="M67.825,176.007c-1.025,1.304-3.416,3.726-7.825,3.726c-0.745,0-2.515-0.062-4.409-0.932
		c-2.484-1.18-5.838-4.161-5.838-10.65c0-1.18,0-4.316,2.019-7.204c1.056-1.521,3.571-4.254,8.384-4.254
		c4.192,0,6.396,2.081,7.39,3.478c0.714,1.056,1.149,2.143,1.521,3.292l-4.068,1.056c-0.031-0.28-0.155-0.994-0.559-1.739
		c-0.838-1.552-2.484-2.36-4.223-2.329c-1.242,0-2.111,0.373-2.546,0.59c-1.614,0.808-3.478,2.919-3.478,7.018
		c0,0.621,0.031,3.229,1.304,5.186c0.435,0.652,0.962,1.211,1.583,1.614c1.304,0.9,2.608,0.994,3.198,0.994
		c1.708,0,2.981-0.684,4.037-1.988c0.435-0.528,0.776-1.18,0.87-1.335c0.124-0.279,0.217-0.528,0.404-1.087l3.881,1.615
		C69.005,174.175,68.57,175.044,67.825,176.007z"/>
	<path d="M72.387,179.174v-21.922h15.588v3.664H76.424v5.154h10.588v3.54H76.424v5.869h12.327v3.695H72.387z"/>
	<path d="M105.269,179.174l-9.595-15.371l0.248,15.371h-4.005v-21.922h3.695l9.719,15.463l-0.497-15.463h4.037v21.922H105.269z"/>
	<path d="M122.096,160.947v18.228h-4.099v-18.228h-5.962v-3.695h16.116v3.695H122.096z"/>
	<path d="M131.223,179.174v-21.922h15.588v3.664H135.26v5.154h10.588v3.54H135.26v5.869h12.327v3.695H131.223z"/>
	<path d="M162.8,179.174l-4.316-8.136h-3.695v8.136h-4.068v-21.922h8.974c0.994,0,3.943,0.093,5.899,2.67
		c1.273,1.677,1.335,3.571,1.335,4.285c0,0.341-0.031,1.428-0.404,2.453c-0.341,0.9-1.397,2.794-3.912,3.571l4.875,8.943H162.8z
		 M161.403,161.444c-0.714-0.466-1.552-0.652-3.292-0.652h-3.322v6.832h1.459c2.391,0,3.881,0,4.875-0.528
		c0.621-0.342,1.646-1.149,1.646-2.919C162.769,163.618,162.707,162.313,161.403,161.444z"/>
	<path d="M183.788,160.916v5.465h9.16v3.509h-9.16v9.285h-4.068v-21.922h14.501v3.664H183.788z"/>
	<path d="M214.123,176.597c-0.497,0.527-1.77,1.801-3.726,2.515c-0.683,0.249-1.956,0.621-3.819,0.621
		c-3.105,0-5.465-1.024-7.515-3.385c-2.049-2.329-2.918-5.061-2.918-8.104c0-0.714,0.031-2.391,0.652-4.254
		c1.428-4.378,5.186-7.297,9.875-7.297c4.223,0,6.738,2.298,7.763,3.478c1.149,1.304,2.764,3.85,2.732,8.042
		C217.166,169.58,217.011,173.461,214.123,176.597z M211.732,163.338c-1.149-1.863-2.888-2.888-5.093-2.888
		c-1.366,0-2.36,0.435-2.794,0.652c-1.553,0.838-3.478,2.888-3.478,6.987c0,0.838,0.031,4.875,3.105,6.894
		c1.335,0.87,2.67,0.931,3.229,0.931c0.435,0,1.429-0.03,2.515-0.527c1.615-0.746,3.727-2.608,3.819-6.738
		C213.067,166.847,212.726,164.921,211.732,163.338z"/>
	<path d="M233.186,179.174l-4.316-8.136h-3.695v8.136h-4.068v-21.922h8.974c0.994,0,3.943,0.093,5.899,2.67
		c1.273,1.677,1.335,3.571,1.335,4.285c0,0.341-0.031,1.428-0.404,2.453c-0.341,0.9-1.397,2.794-3.912,3.571l4.875,8.943H233.186z
		 M231.789,161.444c-0.714-0.466-1.552-0.652-3.292-0.652h-3.322v6.832h1.459c2.391,0,3.881,0,4.875-0.528
		c0.621-0.342,1.646-1.149,1.646-2.919C233.155,163.618,233.093,162.313,231.789,161.444z"/>
	<path d="M262.961,179.174l-1.273-4.285h-8.229l-1.273,4.285h-4.409l7.421-21.922h4.658l7.483,21.922H262.961z M257.589,161.195
		l-3.043,10.092h6.055L257.589,161.195z"/>
	<path d="M283.577,170.48c-1.894,1.211-3.943,1.242-6.086,1.242h-3.198v7.452h-4.099v-21.922h7.391c0.527,0,1.056-0.031,1.583,0
		c0.963,0.062,3.727,0.249,5.683,2.546c1.584,1.832,1.646,3.881,1.646,4.75C286.496,167.965,284.727,169.735,283.577,170.48z
		 M281.776,162.375c-0.932-1.615-2.764-1.615-4.347-1.615h-3.137v7.607h2.95c0.279,0,0.59-0.031,0.869-0.031
		c2.111-0.093,3.043-0.745,3.571-1.615c0.217-0.373,0.59-1.18,0.59-2.298C282.273,163.742,282.118,162.997,281.776,162.375z"/>
	<path d="M302.982,170.48c-1.895,1.211-3.943,1.242-6.086,1.242h-3.198v7.452h-4.1v-21.922h7.391c0.528,0,1.056-0.031,1.584,0
		c0.962,0.062,3.726,0.249,5.682,2.546c1.584,1.832,1.646,3.881,1.646,4.75C305.901,167.965,304.131,169.735,302.982,170.48z
		 M301.182,162.375c-0.932-1.615-2.764-1.615-4.348-1.615h-3.136v7.607h2.949c0.279,0,0.59-0.031,0.87-0.031
		c2.111-0.093,3.043-0.745,3.57-1.615c0.218-0.373,0.59-1.18,0.59-2.298C301.678,163.742,301.522,162.997,301.182,162.375z"/>
	<path d="M309.004,179.174v-21.922h4.13v18.196h8.694v3.726H309.004z"/>
	<path d="M325.118,179.174v-21.922h4.036v21.922H325.118z"/>
	<path d="M334.122,179.174v-21.922h15.588v3.664h-11.551v5.154h10.588v3.54h-10.588v5.869h12.327v3.695H334.122z"/>
	<path d="M365.669,178.584c-1.895,0.59-3.416,0.59-5.372,0.59h-6.986v-21.922h7.855c0.994,0,2.205,0.062,3.167,0.249
		c1.087,0.217,3.447,0.931,5.279,3.291c0.963,1.273,2.267,3.727,2.267,7.608C371.879,172.747,370.202,177.125,365.669,178.584z
		 M365.42,162.375c-0.372-0.311-1.117-0.87-2.298-1.18c-1.056-0.279-1.614-0.249-3.539-0.249h-2.174v14.532h1.087
		c2.204,0,3.509-0.031,4.502-0.186c0.56-0.093,2.111-0.342,3.229-1.708c1.366-1.739,1.305-4.937,1.305-5.217
		C367.532,165.108,366.538,163.369,365.42,162.375z"/>
	<path d="M388.612,160.916v5.465h9.16v3.509h-9.16v9.285h-4.067v-21.922h14.501v3.664H388.612z"/>
	<path d="M419.258,174.703c-0.715,2.205-3.229,5.03-8.602,5.03c-2.577,0-5.154-0.621-6.956-2.608
		c-0.279-0.279-1.024-1.18-1.396-2.359c-0.342-1.118-0.342-2.143-0.342-4.472v-13.042h4.13v13.476c0,1.304,0,1.77,0.217,2.422
		c0.404,1.304,1.584,2.608,4.503,2.608c0.527,0,3.54,0,4.44-2.484c0.248-0.714,0.279-1.304,0.279-2.764v-13.259h4.099v12.638
		C419.63,172.405,419.661,173.461,419.258,174.703z"/>
	<path d="M432.855,160.947v18.228h-4.099v-18.228h-5.962v-3.695h16.115v3.695H432.855z"/>
	<path d="M459.341,174.703c-0.715,2.205-3.229,5.03-8.602,5.03c-2.577,0-5.154-0.621-6.956-2.608
		c-0.279-0.279-1.024-1.18-1.396-2.359c-0.342-1.118-0.342-2.143-0.342-4.472v-13.042h4.13v13.476c0,1.304,0,1.77,0.217,2.422
		c0.404,1.304,1.584,2.608,4.503,2.608c0.527,0,3.54,0,4.44-2.484c0.248-0.714,0.279-1.304,0.279-2.764v-13.259h4.099v12.638
		C459.713,172.405,459.744,173.461,459.341,174.703z"/>
	<path d="M476.789,179.174l-4.316-8.136h-3.695v8.136h-4.067v-21.922h8.974c0.993,0,3.943,0.093,5.899,2.67
		c1.273,1.677,1.336,3.571,1.336,4.285c0,0.341-0.031,1.428-0.404,2.453c-0.342,0.9-1.397,2.794-3.912,3.571l4.875,8.943H476.789z
		 M475.392,161.444c-0.715-0.466-1.553-0.652-3.292-0.652h-3.322v6.832h1.459c2.392,0,3.882,0,4.876-0.528
		c0.62-0.342,1.646-1.149,1.646-2.919C476.758,163.618,476.695,162.313,475.392,161.444z"/>
	<path d="M484.674,179.174v-21.922h15.588v3.664h-11.551v5.154h10.588v3.54h-10.588v5.869h12.327v3.695H484.674z"/>
	<path d="M519.14,177.466c-2.64,2.236-6.18,2.267-7.173,2.267c-1.305,0-5.496-0.062-8.54-3.26c-0.372-0.404-0.775-0.932-1.056-1.429
		l3.447-2.391c0.962,1.429,2.764,3.292,6.8,3.292c0.187,0,0.963,0,1.615-0.155c0.466-0.093,2.608-0.683,2.608-2.732
		c0-0.217-0.031-0.807-0.404-1.304c-0.745-0.994-2.732-1.273-3.819-1.521l-2.608-0.59c-1.117-0.249-2.328-0.497-3.322-1.025
		c-1.024-0.528-3.136-1.925-3.136-5.092c0-0.497,0.062-1.925,0.838-3.229c0.994-1.677,3.385-3.602,7.825-3.602
		c1.956,0,5.807,0.311,8.85,4.44l-3.385,2.515c-0.683-1.087-2.235-3.26-5.683-3.26c-0.217,0-2.98-0.031-3.881,1.677
		c-0.187,0.341-0.249,0.652-0.249,0.994c0,0.373,0.094,0.683,0.28,0.994c0.527,0.9,1.738,1.18,3.757,1.615l2.267,0.497
		c2.081,0.466,4.379,1.087,5.838,2.795c0.621,0.683,1.273,1.677,1.273,3.695C521.282,174.641,520.661,176.163,519.14,177.466z"/>
</g>
</svg>
